<svg xmlns="http://www.w3.org/2000/svg" viewBox="0 0 800 400">
  <defs>
    <linearGradient id="shipGradient" x1="0%" y1="0%" x2="100%" y2="100%">
      <stop offset="0%" style="stop-color:#1e3a8a;stop-opacity:1" />
      <stop offset="100%" style="stop-color:#3b82f6;stop-opacity:1" />
    </linearGradient>
    <linearGradient id="containerGradient" x1="0%" y1="0%" x2="100%" y2="100%">
      <stop offset="0%" style="stop-color:#ef4444;stop-opacity:1" />
      <stop offset="100%" style="stop-color:#dc2626;stop-opacity:1" />
    </linearGradient>
    <linearGradient id="container2Gradient" x1="0%" y1="0%" x2="100%" y2="100%">
      <stop offset="0%" style="stop-color:#10b981;stop-opacity:1" />
      <stop offset="100%" style="stop-color:#059669;stop-opacity:1" />
    </linearGradient>
    <linearGradient id="container3Gradient" x1="0%" y1="0%" x2="100%" y2="100%">
      <stop offset="0%" style="stop-color:#f59e0b;stop-opacity:1" />
      <stop offset="100%" style="stop-color:#d97706;stop-opacity:1" />
    </linearGradient>
    <linearGradient id="skyGradient" x1="0%" y1="0%" x2="0%" y2="100%">
      <stop offset="0%" style="stop-color:#e0f2fe;stop-opacity:1" />
      <stop offset="100%" style="stop-color:#bae6fd;stop-opacity:1" />
    </linearGradient>
    <linearGradient id="waterGradient" x1="0%" y1="0%" x2="0%" y2="100%">
      <stop offset="0%" style="stop-color:#0ea5e9;stop-opacity:1" />
      <stop offset="100%" style="stop-color:#0284c7;stop-opacity:1" />
    </linearGradient>
  </defs>
  
  <!-- Sky -->
  <rect x="0" y="0" width="800" height="280" fill="url(#skyGradient)"/>
  
  <!-- Water -->
  <rect x="0" y="280" width="800" height="120" fill="url(#waterGradient)"/>
  
  <!-- Water waves -->
  <path d="M0 290 Q100 285 200 290 T400 290 T600 290 T800 290" stroke="#ffffff" stroke-width="2" fill="none" opacity="0.6"/>
  <path d="M0 305 Q150 300 300 305 T600 305 T800 305" stroke="#ffffff" stroke-width="1.5" fill="none" opacity="0.4"/>
  <path d="M0 320 Q80 315 160 320 T320 320 T480 320 T640 320 T800 320" stroke="#ffffff" stroke-width="1" fill="none" opacity="0.3"/>
  
  <!-- Ship hull -->
  <path d="M100 240 L650 240 L680 280 L70 280 Z" fill="url(#shipGradient)" stroke="#1e40af" stroke-width="2"/>
  
  <!-- Ship deck -->
  <rect x="100" y="220" width="550" height="20" fill="#374151" stroke="#1f2937" stroke-width="1"/>
  
  <!-- Containers - Stack 1 -->
  <rect x="150" y="180" width="60" height="40" fill="url(#containerGradient)" stroke="#b91c1c" stroke-width="1"/>
  <rect x="150" y="140" width="60" height="40" fill="url(#container2Gradient)" stroke="#047857" stroke-width="1"/>
  <rect x="150" y="100" width="60" height="40" fill="url(#container3Gradient)" stroke="#b45309" stroke-width="1"/>
  
  <!-- Containers - Stack 2 -->
  <rect x="220" y="180" width="60" height="40" fill="url(#container2Gradient)" stroke="#047857" stroke-width="1"/>
  <rect x="220" y="140" width="60" height="40" fill="url(#container3Gradient)" stroke="#b45309" stroke-width="1"/>
  <rect x="220" y="100" width="60" height="40" fill="url(#containerGradient)" stroke="#b91c1c" stroke-width="1"/>
  
  <!-- Containers - Stack 3 -->
  <rect x="290" y="180" width="60" height="40" fill="url(#container3Gradient)" stroke="#b45309" stroke-width="1"/>
  <rect x="290" y="140" width="60" height="40" fill="url(#containerGradient)" stroke="#b91c1c" stroke-width="1"/>
  
  <!-- Containers - Stack 4 -->
  <rect x="360" y="180" width="60" height="40" fill="url(#containerGradient)" stroke="#b91c1c" stroke-width="1"/>
  <rect x="360" y="140" width="60" height="40" fill="url(#container2Gradient)" stroke="#047857" stroke-width="1"/>
  <rect x="360" y="100" width="60" height="40" fill="url(#container3Gradient)" stroke="#b45309" stroke-width="1"/>
  
  <!-- Containers - Stack 5 -->
  <rect x="430" y="180" width="60" height="40" fill="url(#container2Gradient)" stroke="#047857" stroke-width="1"/>
  <rect x="430" y="140" width="60" height="40" fill="url(#container3Gradient)" stroke="#b45309" stroke-width="1"/>
  
  <!-- Bridge/Cabin -->
  <rect x="500" y="140" width="80" height="80" fill="#6b7280" stroke="#4b5563" stroke-width="2"/>
  <rect x="510" y="150" width="15" height="15" fill="#93c5fd" stroke="#3b82f6" stroke-width="1"/>
  <rect x="530" y="150" width="15" height="15" fill="#93c5fd" stroke="#3b82f6" stroke-width="1"/>
  <rect x="550" y="150" width="15" height="15" fill="#93c5fd" stroke="#3b82f6" stroke-width="1"/>
  
  <!-- Crane -->
  <rect x="580" y="80" width="4" height="140" fill="#4b5563"/>
  <rect x="520" y="82" width="80" height="4" fill="#4b5563"/>
  <rect x="516" y="78" width="8" height="8" fill="#6b7280"/>
  
  <!-- Container details (lines) -->
  <line x1="155" y1="160" x2="205" y2="160" stroke="#ffffff" stroke-width="0.5" opacity="0.7"/>
  <line x1="155" y1="170" x2="205" y2="170" stroke="#ffffff" stroke-width="0.5" opacity="0.7"/>
  <line x1="155" y1="200" x2="205" y2="200" stroke="#ffffff" stroke-width="0.5" opacity="0.7"/>
  <line x1="155" y1="210" x2="205" y2="210" stroke="#ffffff" stroke-width="0.5" opacity="0.7"/>
  
  <!-- Clouds -->
  <circle cx="650" cy="60" r="20" fill="#ffffff" opacity="0.8"/>
  <circle cx="670" cy="60" r="25" fill="#ffffff" opacity="0.8"/>
  <circle cx="690" cy="60" r="18" fill="#ffffff" opacity="0.8"/>
  
  <circle cx="120" cy="80" r="15" fill="#ffffff" opacity="0.6"/>
  <circle cx="135" cy="80" r="20" fill="#ffffff" opacity="0.6"/>
  <circle cx="150" cy="80" r="12" fill="#ffffff" opacity="0.6"/>
  
  <!-- Sun -->
  <circle cx="700" cy="50" r="25" fill="#fbbf24" opacity="0.9"/>
  <g stroke="#fbbf24" stroke-width="2" opacity="0.7">
    <line x1="700" y1="15" x2="700" y2="25"/>
    <line x1="700" y1="75" x2="700" y2="85"/>
    <line x1="665" y1="50" x2="675" y2="50"/>
    <line x1="725" y1="50" x2="735" y2="50"/>
    <line x1="679" y1="29" x2="686" y2="36"/>
    <line x1="714" y1="64" x2="721" y2="71"/>
    <line x1="679" y1="71" x2="686" y2="64"/>
    <line x1="714" y1="36" x2="721" y2="29"/>
  </g>
</svg>