<svg xmlns="http://www.w3.org/2000/svg" viewBox="0 0 1200 600">
  <defs>
    <linearGradient id="skyGradient" x1="0%" y1="0%" x2="0%" y2="100%">
      <stop offset="0%" style="stop-color:#1e3a8a;stop-opacity:1" />
      <stop offset="50%" style="stop-color:#3b82f6;stop-opacity:0.9" />
      <stop offset="100%" style="stop-color:#1e40af;stop-opacity:1" />
    </linearGradient>
    <linearGradient id="waterGradient" x1="0%" y1="0%" x2="0%" y2="100%">
      <stop offset="0%" style="stop-color:#0ea5e9;stop-opacity:0.8" />
      <stop offset="100%" style="stop-color:#0284c7;stop-opacity:0.9" />
    </linearGradient>
    <linearGradient id="shipGradient" x1="0%" y1="0%" x2="100%" y2="100%">
      <stop offset="0%" style="stop-color:#374151;stop-opacity:0.9" />
      <stop offset="100%" style="stop-color:#1f2937;stop-opacity:0.9" />
    </linearGradient>
    <linearGradient id="containerRed" x1="0%" y1="0%" x2="100%" y2="100%">
      <stop offset="0%" style="stop-color:#ef4444;stop-opacity:0.8" />
      <stop offset="100%" style="stop-color:#dc2626;stop-opacity:0.8" />
    </linearGradient>
    <linearGradient id="containerBlue" x1="0%" y1="0%" x2="100%" y2="100%">
      <stop offset="0%" style="stop-color:#3b82f6;stop-opacity:0.8" />
      <stop offset="100%" style="stop-color:#1e40af;stop-opacity:0.8" />
    </linearGradient>
    <linearGradient id="containerGreen" x1="0%" y1="0%" x2="100%" y2="100%">
      <stop offset="0%" style="stop-color:#10b981;stop-opacity:0.8" />
      <stop offset="100%" style="stop-color:#059669;stop-opacity:0.8" />
    </linearGradient>
    <linearGradient id="craneGradient" x1="0%" y1="0%" x2="100%" y2="100%">
      <stop offset="0%" style="stop-color:#facc15;stop-opacity:0.7" />
      <stop offset="100%" style="stop-color:#eab308;stop-opacity:0.7" />
    </linearGradient>
    <radialGradient id="sunGradient" cx="50%" cy="50%" r="50%">
      <stop offset="0%" style="stop-color:#fbbf24;stop-opacity:0.6" />
      <stop offset="100%" style="stop-color:#f59e0b;stop-opacity:0.3" />
    </radialGradient>
  </defs>
  
  <!-- Sky background -->
  <rect x="0" y="0" width="1200" height="400" fill="url(#skyGradient)"/>
  
  <!-- Water -->
  <rect x="0" y="400" width="1200" height="200" fill="url(#waterGradient)"/>
  
  <!-- Sun -->
  <circle cx="1000" cy="80" r="40" fill="url(#sunGradient)" opacity="0.8"/>
  <g stroke="#fbbf24" stroke-width="2" opacity="0.4">
    <line x1="1000" y1="30" x2="1000" y2="40"/>
    <line x1="1000" y1="120" x2="1000" y2="130"/>
    <line x1="950" y1="80" x2="960" y2="80"/>
    <line x1="1040" y1="80" x2="1050" y2="80"/>
    <line x1="965" y1="55" x2="972" y2="62"/>
    <line x1="1028" y1="98" x2="1035" y2="105"/>
    <line x1="965" y1="105" x2="972" y2="98"/>
    <line x1="1028" y1="62" x2="1035" y2="55"/>
  </g>
  
  <!-- Port background structures -->
  <g opacity="0.3">
    <!-- Distant buildings -->
    <rect x="50" y="200" width="100" height="200" fill="#6b7280"/>
    <rect x="200" y="180" width="80" height="220" fill="#6b7280"/>
    <rect x="320" y="190" width="120" height="210" fill="#6b7280"/>
    <rect x="500" y="170" width="90" height="230" fill="#6b7280"/>
    
    <!-- Port cranes in background -->
    <rect x="600" y="150" width="8" height="250" fill="#9ca3af"/>
    <rect x="540" y="155" width="120" height="8" fill="#9ca3af"/>
    
    <rect x="750" y="140" width="8" height="260" fill="#9ca3af"/>
    <rect x="680" y="145" width="140" height="8" fill="#9ca3af"/>
  </g>
  
  <!-- Main cargo ship -->
  <g transform="translate(200, 350)" opacity="0.9">
    <!-- Ship hull -->
    <path d="M0 50 L400 50 L420 80 L-20 80 Z" fill="url(#shipGradient)" stroke="#1f2937" stroke-width="1"/>
    
    <!-- Ship deck -->
    <rect x="0" y="30" width="400" height="20" fill="#4b5563"/>
    
    <!-- Containers on ship - Stack 1 -->
    <rect x="50" y="-10" width="40" height="25" fill="url(#containerRed)" stroke="#dc2626" stroke-width="0.5"/>
    <rect x="50" y="-35" width="40" height="25" fill="url(#containerBlue)" stroke="#1e40af" stroke-width="0.5"/>
    
    <!-- Containers on ship - Stack 2 -->
    <rect x="100" y="-10" width="40" height="25" fill="url(#containerGreen)" stroke="#059669" stroke-width="0.5"/>
    <rect x="100" y="-35" width="40" height="25" fill="url(#containerRed)" stroke="#dc2626" stroke-width="0.5"/>
    <rect x="100" y="-60" width="40" height="25" fill="url(#containerBlue)" stroke="#1e40af" stroke-width="0.5"/>
    
    <!-- Containers on ship - Stack 3 -->
    <rect x="150" y="-10" width="40" height="25" fill="url(#containerBlue)" stroke="#1e40af" stroke-width="0.5"/>
    <rect x="150" y="-35" width="40" height="25" fill="url(#containerGreen)" stroke="#059669" stroke-width="0.5"/>
    
    <!-- Containers on ship - Stack 4 -->
    <rect x="200" y="-10" width="40" height="25" fill="url(#containerRed)" stroke="#dc2626" stroke-width="0.5"/>
    <rect x="200" y="-35" width="40" height="25" fill="url(#containerBlue)" stroke="#1e40af" stroke-width="0.5"/>
    <rect x="200" y="-60" width="40" height="25" fill="url(#containerGreen)" stroke="#059669" stroke-width="0.5"/>
    
    <!-- Containers on ship - Stack 5 -->
    <rect x="250" y="-10" width="40" height="25" fill="url(#containerGreen)" stroke="#059669" stroke-width="0.5"/>
    <rect x="250" y="-35" width="40" height="25" fill="url(#containerRed)" stroke="#dc2626" stroke-width="0.5"/>
    
    <!-- Ship bridge/cabin -->
    <rect x="300" y="-40" width="60" height="70" fill="#6b7280" stroke="#4b5563" stroke-width="1"/>
    <rect x="310" y="-30" width="12" height="10" fill="#93c5fd" stroke="#3b82f6" stroke-width="0.5"/>
    <rect x="325" y="-30" width="12" height="10" fill="#93c5fd" stroke="#3b82f6" stroke-width="0.5"/>
    <rect x="340" y="-30" width="12" height="10" fill="#93c5fd" stroke="#3b82f6" stroke-width="0.5"/>
    
    <!-- Ship mast -->
    <rect x="335" y="-80" width="3" height="40" fill="#6b7280"/>
  </g>
  
  <!-- Port crane -->
  <g transform="translate(800, 200)" opacity="0.7">
    <!-- Crane structure -->
    <rect x="0" y="0" width="6" height="200" fill="url(#craneGradient)"/>
    <rect x="30" y="0" width="6" height="200" fill="url(#craneGradient)"/>
    
    <!-- Crane arm -->
    <rect x="-80" y="0" width="200" height="8" fill="url(#craneGradient)"/>
    
    <!-- Crane trolley -->
    <rect x="-40" y="-8" width="15" height="16" fill="#dc2626"/>
    
    <!-- Crane cables -->
    <line x1="-32" y1="8" x2="-32" y2="60" stroke="#374151" stroke-width="2"/>
    <line x1="-38" y1="8" x2="-38" y2="70" stroke="#374151" stroke-width="1.5"/>
    <line x1="-26" y1="8" x2="-26" y2="70" stroke="#374151" stroke-width="1.5"/>
    
    <!-- Container being lifted -->
    <rect x="-58" y="60" width="40" height="25" fill="url(#containerRed)" opacity="0.8"/>
  </g>
  
  <!-- Water reflections and waves -->
  <g opacity="0.5">
    <!-- Waves -->
    <path d="M0 420 Q100 415 200 420 T400 420 T600 420 T800 420 T1000 420 T1200 420" 
          stroke="#ffffff" stroke-width="2" fill="none" opacity="0.6"/>
    <path d="M0 440 Q150 435 300 440 T600 440 T900 440 T1200 440" 
          stroke="#ffffff" stroke-width="1.5" fill="none" opacity="0.4"/>
    <path d="M0 460 Q80 455 160 460 T320 460 T480 460 T640 460 T800 460 T960 460 T1200 460" 
          stroke="#ffffff" stroke-width="1" fill="none" opacity="0.3"/>
    
    <!-- Ship reflection -->
    <path d="M180 480 L580 480 L600 500 L160 500 Z" fill="#1f2937" opacity="0.2"/>
  </g>
  
  <!-- Clouds -->
  <g fill="#ffffff" opacity="0.3">
    <circle cx="150" cy="100" r="25"/>
    <circle cx="175" cy="100" r="30"/>
    <circle cx="200" cy="100" r="20"/>
    
    <circle cx="400" cy="80" r="20"/>
    <circle cx="420" cy="80" r="25"/>
    <circle cx="440" cy="80" r="18"/>
    
    <circle cx="700" cy="120" r="22"/>
    <circle cx="725" cy="120" r="28"/>
    <circle cx="750" cy="120" r="24"/>
  </g>
  
  <!-- Birds -->
  <g stroke="#ffffff" stroke-width="1.5" fill="none" opacity="0.4">
    <path d="M300 150 Q305 145 310 150"/>
    <path d="M308 150 Q313 145 318 150"/>
    
    <path d="M500 120 Q505 115 510 120"/>
    <path d="M508 120 Q513 115 518 120"/>
    
    <path d="M850 160 Q855 155 860 160"/>
    <path d="M858 160 Q863 155 868 160"/>
  </g>
  
  <!-- Overlay gradient for text readability -->
  <rect x="0" y="0" width="1200" height="600" fill="url(#skyGradient)" opacity="0.3"/>
</svg>