<svg xmlns="http://www.w3.org/2000/svg" viewBox="0 0 800 400">
  <defs>
    <linearGradient id="skyGradient" x1="0%" y1="0%" x2="0%" y2="100%">
      <stop offset="0%" style="stop-color:#e0f2fe;stop-opacity:1" />
      <stop offset="100%" style="stop-color:#bae6fd;stop-opacity:1" />
    </linearGradient>
    <linearGradient id="groundGradient" x1="0%" y1="0%" x2="0%" y2="100%">
      <stop offset="0%" style="stop-color:#9ca3af;stop-opacity:1" />
      <stop offset="100%" style="stop-color:#6b7280;stop-opacity:1" />
    </linearGradient>
    <linearGradient id="containerRed" x1="0%" y1="0%" x2="100%" y2="100%">
      <stop offset="0%" style="stop-color:#ef4444;stop-opacity:1" />
      <stop offset="100%" style="stop-color:#dc2626;stop-opacity:1" />
    </linearGradient>
    <linearGradient id="containerBlue" x1="0%" y1="0%" x2="100%" y2="100%">
      <stop offset="0%" style="stop-color:#3b82f6;stop-opacity:1" />
      <stop offset="100%" style="stop-color:#1e40af;stop-opacity:1" />
    </linearGradient>
    <linearGradient id="truckGradient" x1="0%" y1="0%" x2="100%" y2="100%">
      <stop offset="0%" style="stop-color:#374151;stop-opacity:1" />
      <stop offset="100%" style="stop-color:#1f2937;stop-opacity:1" />
    </linearGradient>
  </defs>
  
  <!-- Sky -->
  <rect x="0" y="0" width="800" height="200" fill="url(#skyGradient)"/>
  
  <!-- Ground -->
  <rect x="0" y="200" width="800" height="200" fill="url(#groundGradient)"/>
  
  <!-- Loading area markings -->
  <g stroke="#facc15" stroke-width="3" stroke-dasharray="10,5" opacity="0.8">
    <line x1="50" y1="220" x2="750" y2="220"/>
    <line x1="150" y1="200" x2="150" y2="400"/>
    <line x1="300" y1="200" x2="300" y2="400"/>
    <line x1="500" y1="200" x2="500" y2="400"/>
    <line x1="650" y1="200" x2="650" y2="400"/>
  </g>
  
  <!-- Containers being handled -->
  <g id="containers">
    <!-- Stack 1 -->
    <rect x="80" y="260" width="60" height="40" fill="url(#containerRed)" stroke="#dc2626" stroke-width="2"/>
    <rect x="80" y="220" width="60" height="40" fill="url(#containerBlue)" stroke="#1e40af" stroke-width="2"/>
    
    <!-- Stack 2 -->
    <rect x="180" y="260" width="60" height="40" fill="url(#containerBlue)" stroke="#1e40af" stroke-width="2"/>
    <rect x="180" y="220" width="60" height="40" fill="url(#containerRed)" stroke="#dc2626" stroke-width="2"/>
    
    <!-- Container being moved -->
    <rect x="350" y="180" width="60" height="40" fill="url(#containerRed)" stroke="#dc2626" stroke-width="2" opacity="0.9"/>
    
    <!-- Stack 3 -->
    <rect x="520" y="260" width="60" height="40" fill="url(#containerBlue)" stroke="#1e40af" stroke-width="2"/>
    
    <!-- Container being loaded -->
    <rect x="680" y="240" width="60" height="40" fill="url(#containerRed)" stroke="#dc2626" stroke-width="2"/>
  </g>
  
  <!-- Truck -->
  <g id="truck" transform="translate(620, 280)">
    <!-- Trailer -->
    <rect x="0" y="0" width="120" height="40" fill="url(#truckGradient)" stroke="#111827" stroke-width="2"/>
    
    <!-- Cab -->
    <rect x="-40" y="5" width="40" height="35" fill="#3b82f6" stroke="#1e40af" stroke-width="2"/>
    <rect x="-35" y="10" width="12" height="10" fill="#93c5fd" stroke="#3b82f6" stroke-width="1"/>
    <rect x="-20" y="10" width="12" height="10" fill="#93c5fd" stroke="#3b82f6" stroke-width="1"/>
    
    <!-- Wheels -->
    <circle cx="-20" cy="50" r="8" fill="#111827"/>
    <circle cx="20" cy="50" r="8" fill="#111827"/>
    <circle cx="100" cy="50" r="8" fill="#111827"/>
    <circle cx="-20" cy="50" r="4" fill="#6b7280"/>
    <circle cx="20" cy="50" r="4" fill="#6b7280"/>
    <circle cx="100" cy="50" r="4" fill="#6b7280"/>
    
    <!-- Loading ramp -->
    <polygon points="120,35 150,50 120,40" fill="#9ca3af" stroke="#6b7280" stroke-width="1"/>
  </g>
  
  <!-- Workers team -->
  <g id="workers">
    <!-- Supervisor with clipboard -->
    <g transform="translate(400, 280)">
      <circle cx="0" cy="0" r="12" fill="#fbbf24"/>
      <rect x="-8" y="12" width="16" height="25" fill="#ef4444"/>
      <rect x="-6" y="37" width="5" height="20" fill="#1e40af"/>
      <rect x="1" y="37" width="5" height="20" fill="#1e40af"/>
      <!-- Arms -->
      <rect x="-15" y="15" width="8" height="4" fill="#fbbf24"/>
      <rect x="7" y="15" width="8" height="4" fill="#fbbf24"/>
      <!-- Clipboard -->
      <rect x="15" y="10" width="8" height="12" fill="#ffffff" stroke="#6b7280" stroke-width="1"/>
      <!-- Hard hat -->
      <ellipse cx="0" cy="-8" rx="14" ry="8" fill="#facc15" stroke="#eab308" stroke-width="1"/>
    </g>
    
    <!-- Worker 1 - Moving container -->
    <g transform="translate(320, 280)">
      <circle cx="0" cy="0" r="10" fill="#fbbf24"/>
      <rect x="-6" y="10" width="12" height="20" fill="#10b981"/>
      <rect x="-4" y="30" width="4" height="18" fill="#1e40af"/>
      <rect x="0" y="30" width="4" height="18" fill="#1e40af"/>
      <!-- Arms pushing -->
      <rect x="-18" y="12" width="12" height="4" fill="#fbbf24"/>
      <rect x="6" y="12" width="12" height="4" fill="#fbbf24"/>
      <!-- Hard hat -->
      <ellipse cx="0" cy="-6" rx="12" ry="6" fill="#ef4444" stroke="#dc2626" stroke-width="1"/>
      <!-- Safety vest lines -->
      <line x1="-6" y1="15" x2="6" y2="15" stroke="#facc15" stroke-width="2"/>
      <line x1="-6" y1="20" x2="6" y2="20" stroke="#facc15" stroke-width="2"/>
    </g>
    
    <!-- Worker 2 - Guiding -->
    <g transform="translate(280, 290)">
      <circle cx="0" cy="0" r="10" fill="#fbbf24"/>
      <rect x="-6" y="10" width="12" height="20" fill="#f59e0b"/>
      <rect x="-4" y="30" width="4" height="18" fill="#1e40af"/>
      <rect x="0" y="30" width="4" height="18" fill="#1e40af"/>
      <!-- Arms signaling -->
      <rect x="-12" y="8" width="8" height="4" fill="#fbbf24" transform="rotate(-45 -8 10)"/>
      <rect x="4" y="8" width="8" height="4" fill="#fbbf24" transform="rotate(45 8 10)"/>
      <!-- Hard hat -->
      <ellipse cx="0" cy="-6" rx="12" ry="6" fill="#10b981" stroke="#059669" stroke-width="1"/>
      <!-- Safety vest lines -->
      <line x1="-6" y1="15" x2="6" y2="15" stroke="#facc15" stroke-width="2"/>
      <line x1="-6" y1="20" x2="6" y2="20" stroke="#facc15" stroke-width="2"/>
    </g>
    
    <!-- Worker 3 - At truck -->
    <g transform="translate(680, 290)">
      <circle cx="0" cy="0" r="10" fill="#fbbf24"/>
      <rect x="-6" y="10" width="12" height="20" fill="#8b5cf6"/>
      <rect x="-4" y="30" width="4" height="18" fill="#1e40af"/>
      <rect x="0" y="30" width="4" height="18" fill="#1e40af"/>
      <!-- Arms working -->
      <rect x="-15" y="15" width="10" height="4" fill="#fbbf24"/>
      <rect x="5" y="15" width="10" height="4" fill="#fbbf24"/>
      <!-- Hard hat -->
      <ellipse cx="0" cy="-6" rx="12" ry="6" fill="#3b82f6" stroke="#1e40af" stroke-width="1"/>
      <!-- Safety vest lines -->
      <line x1="-6" y1="15" x2="6" y2="15" stroke="#facc15" stroke-width="2"/>
      <line x1="-6" y1="20" x2="6" y2="20" stroke="#facc15" stroke-width="2"/>
    </g>
    
    <!-- Worker 4 - Documentation -->
    <g transform="translate(150, 290)">
      <circle cx="0" cy="0" r="10" fill="#fbbf24"/>
      <rect x="-6" y="10" width="12" height="20" fill="#06b6d4"/>
      <rect x="-4" y="30" width="4" height="18" fill="#1e40af"/>
      <rect x="0" y="30" width="4" height="18" fill="#1e40af"/>
      <!-- Arms with tablet -->
      <rect x="-8" y="12" width="6" height="3" fill="#fbbf24"/>
      <rect x="2" y="12" width="6" height="3" fill="#fbbf24"/>
      <!-- Tablet -->
      <rect x="8" y="8" width="12" height="8" fill="#1f2937" stroke="#111827" stroke-width="1"/>
      <rect x="9" y="9" width="10" height="6" fill="#3b82f6"/>
      <!-- Hard hat -->
      <ellipse cx="0" cy="-6" rx="12" ry="6" fill="#f59e0b" stroke="#d97706" stroke-width="1"/>
      <!-- Safety vest lines -->
      <line x1="-6" y1="15" x2="6" y2="15" stroke="#facc15" stroke-width="2"/>
      <line x1="-6" y1="20" x2="6" y2="20" stroke="#facc15" stroke-width="2"/>
    </g>
    
    <!-- Worker 5 - Quality control -->
    <g transform="translate(550, 290)">
      <circle cx="0" cy="0" r="10" fill="#fbbf24"/>
      <rect x="-6" y="10" width="12" height="20" fill="#ec4899"/>
      <rect x="-4" y="30" width="4" height="18" fill="#1e40af"/>
      <rect x="0" y="30" width="4" height="18" fill="#1e40af"/>
      <!-- Arms checking -->
      <rect x="-10" y="12" width="8" height="3" fill="#fbbf24"/>
      <rect x="2" y="12" width="8" height="3" fill="#fbbf24"/>
      <!-- Hard hat -->
      <ellipse cx="0" cy="-6" rx="12" ry="6" fill="#84cc16" stroke="#65a30d" stroke-width="1"/>
      <!-- Safety vest lines -->
      <line x1="-6" y1="15" x2="6" y2="15" stroke="#facc15" stroke-width="2"/>
      <line x1="-6" y1="20" x2="6" y2="20" stroke="#facc15" stroke-width="2"/>
    </g>
  </g>
  
  <!-- Equipment -->
  <g id="equipment">
    <!-- Hand truck -->
    <g transform="translate(200, 320)">
      <rect x="0" y="0" width="3" height="25" fill="#6b7280"/>
      <rect x="-8" y="-8" width="16" height="8" fill="#9ca3af" stroke="#6b7280" stroke-width="1"/>
      <circle cx="0" cy="30" r="5" fill="#111827"/>
      <circle cx="0" cy="30" r="2" fill="#6b7280"/>
    </g>
    
    <!-- Safety cones -->
    <g fill="#f59e0b" stroke="#d97706" stroke-width="1">
      <polygon points="250,350 260,350 255,335" transform="translate(0,0)"/>
      <polygon points="450,350 460,350 455,335" transform="translate(0,0)"/>
      <polygon points="600,350 610,350 605,335" transform="translate(0,0)"/>
    </g>
    
    <!-- Warning signs -->
    <g id="signs">
      <rect x="100" y="240" width="30" height="20" fill="#facc15" stroke="#eab308" stroke-width="2"/>
      <text x="115" y="252" text-anchor="middle" font-family="Arial" font-size="10" font-weight="bold" fill="#000">⚠</text>
      
      <rect x="470" y="240" width="30" height="20" fill="#facc15" stroke="#eab308" stroke-width="2"/>
      <text x="485" y="252" text-anchor="middle" font-family="Arial" font-size="10" font-weight="bold" fill="#000">⚠</text>
    </g>
  </g>
  
  <!-- Container details and markings -->
  <g id="container-markings" stroke="#ffffff" stroke-width="1" opacity="0.7">
    <!-- Container 1 markings -->
    <line x1="85" y1="245" x2="135" y2="245"/>
    <line x1="85" y1="250" x2="135" y2="250"/>
    <line x1="85" y1="275" x2="135" y2="275"/>
    <line x1="85" y1="285" x2="135" y2="285"/>
    
    <!-- Container 2 markings -->
    <line x1="185" y1="245" x2="235" y2="245"/>
    <line x1="185" y1="250" x2="235" y2="250"/>
    <line x1="185" y1="275" x2="235" y2="275"/>
    <line x1="185" y1="285" x2="235" y2="285"/>
  </g>
  
  <!-- Communication arrows/signals -->
  <g stroke="#10b981" stroke-width="3" fill="none" marker-end="url(#arrowhead)">
    <defs>
      <marker id="arrowhead" markerWidth="10" markerHeight="7" 
              refX="10" refY="3.5" orient="auto">
        <polygon points="0 0, 10 3.5, 0 7" fill="#10b981"/>
      </marker>
    </defs>
    
    <!-- Communication lines between workers -->
    <path d="M320 290 Q350 270 380 290" stroke-dasharray="5,3"/>
    <path d="M280 300 Q300 280 320 290" stroke-dasharray="5,3"/>
    <path d="M400 300 Q450 290 500 290" stroke-dasharray="5,3"/>
  </g>
  
  <!-- Background buildings -->
  <g id="background" opacity="0.3">
    <rect x="0" y="100" width="800" height="30" fill="#9ca3af"/>
    <rect x="50" y="80" width="60" height="50" fill="#6b7280"/>
    <rect x="150" y="90" width="40" height="40" fill="#6b7280"/>
    <rect x="600" y="85" width="80" height="45" fill="#6b7280"/>
    <rect x="720" y="95" width="50" height="35" fill="#6b7280"/>
  </g>
</svg>