<svg xmlns="http://www.w3.org/2000/svg" width="32" height="32" viewBox="0 0 32 32">
  <defs>
    <linearGradient id="shipGradient" x1="0%" y1="0%" x2="100%" y2="100%">
      <stop offset="0%" style="stop-color:#1e3a8a;stop-opacity:1" />
      <stop offset="100%" style="stop-color:#3b82f6;stop-opacity:1" />
    </linearGradient>
  </defs>
  
  <!-- Background circle -->
  <circle cx="16" cy="16" r="15" fill="url(#shipGradient)" stroke="#ffffff" stroke-width="2"/>
  
  <!-- Ship hull -->
  <path d="M8 20 L24 20 L22 24 L10 24 Z" fill="#ffffff" opacity="0.9"/>
  
  <!-- Ship deck -->
  <rect x="10" y="18" width="12" height="2" fill="#ffffff"/>
  
  <!-- Mast -->
  <rect x="15.5" y="8" width="1" height="10" fill="#ffffff"/>
  
  <!-- Sail -->
  <path d="M12 8 L12 16 L20 14 L20 10 Z" fill="#ffffff" opacity="0.8"/>
  
  <!-- Flag -->
  <path d="M16.5 8 L16.5 12 L21 11 L21 9 Z" fill="#10b981"/>
  
  <!-- Waves -->
  <path d="M4 26 Q8 24 12 26 T20 26 T28 26" stroke="#ffffff" stroke-width="1.5" fill="none" opacity="0.6"/>
  <path d="M2 28 Q6 26 10 28 T18 28 T26 28 T30 28" stroke="#ffffff" stroke-width="1" fill="none" opacity="0.4"/>
</svg>
